# xmcd
#
# Track frame offsets:
#	150
#	15609
#	32387
#	50536
#	63979
#	81207
#	91697
#	107973
#	126413
#	142423
#	162724
#	183496
#	199948
#
# Disc length: 2872 seconds
#
# Revision: 1
# Processed by: cddbd v1.5.2PL0 Copyright (c) Steve Scherf et al.
# Submitted via: EZCDAudioConverter 6.0.2.1
#
DISCID=ba0b360d
DTITLE=John Anderson - Goldmine
DYEAR=2015
DGENRE=Country
TTITLE0=Freedom Isn't Free
TTITLE1=Magic Mama
TTITLE2=Back Home
TTITLE3=Goldmine
TTITLE4=Happily Ever After
TTITLE5=I Work Alot Better
TTITLE6=I Will Cross O'er The River
TTITLE7=Louisiana Son Of A Beast
TTITLE8=Holdin On
TTITLE9=Song The Mountain Sings
TTITLE10=On And On And On...
TTITLE11=Don't Forget To Thank The Lord
TTITLE12=You All Are Beautiful
EXTD=
EXTT0=
EXTT1=
EXTT2=
EXTT3=
EXTT4=
EXTT5=
EXTT6=
EXTT7=
EXTT8=
EXTT9=
EXTT10=
EXTT11=
EXTT12=
PLAYORDER=
